<?xml version="1.0" standalone="no"?><!DOCTYPE svg PUBLIC "-//W3C//DTD SVG 1.1//EN" "http://www.w3.org/Graphics/SVG/1.1/DTD/svg11.dtd"><svg height="1024" node-id="1" sillyvg="true" template-height="1024" template-width="1024" version="1.1" viewBox="0 0 1024 1024" width="1024" xmlns="http://www.w3.org/2000/svg" xmlns:xlink="http://www.w3.org/1999/xlink"><defs node-id="76"><filter height="157" id="椭圆_717" node-id="3" width="157" x="791.5" y="278.514"><feOffset color-interpolation-filters="linearRGB" dx="0" dy="0" in="SourceGraphic" result="result1"></feOffset><feGaussianBlur color-interpolation-filters="linearRGB" in="result1" result="blur" stdDeviation="6 6"></feGaussianBlur><feFlood color-interpolation-filters="linearRGB" flood-color="#FB7299" flood-opacity="0.161" result="result3"></feFlood><feComposite color-interpolation-filters="linearRGB" in="result3" in2="blur" operator="in" result="result4"></feComposite><feComposite color-interpolation-filters="linearRGB" in="SourceGraphic" in2="result4" operator="over" result="result5"></feComposite></filter><filter height="175.64603" id="路径_1168" node-id="9" width="192.29297" x="674.199" y="342.561"><feOffset color-interpolation-filters="linearRGB" dx="0" dy="0" in="SourceGraphic" result="result1"></feOffset><feGaussianBlur color-interpolation-filters="linearRGB" in="result1" result="blur-2" stdDeviation="6 6"></feGaussianBlur><feFlood color-interpolation-filters="linearRGB" flood-color="#FB7299" flood-opacity="0.161" result="result3"></feFlood><feComposite color-interpolation-filters="linearRGB" in="result3" in2="blur-2" operator="in" result="result4"></feComposite><feComposite color-interpolation-filters="linearRGB" in="SourceGraphic" in2="result4" operator="over" result="result5"></feComposite></filter><filter height="176.00003" id="椭圆_717-2" node-id="15" width="176" x="494.5" y="338.514"><feOffset color-interpolation-filters="linearRGB" dx="0" dy="0" in="SourceGraphic" result="result1"></feOffset><feGaussianBlur color-interpolation-filters="linearRGB" in="result1" result="blur-3" stdDeviation="6 6"></feGaussianBlur><feFlood color-interpolation-filters="linearRGB" flood-color="#012657" flood-opacity="0.161" result="result3"></feFlood><feComposite color-interpolation-filters="linearRGB" in="result3" in2="blur-3" operator="in" result="result4"></feComposite><feComposite color-interpolation-filters="linearRGB" in="SourceGraphic" in2="result4" operator="over" result="result5"></feComposite></filter><filter height="175.64603" id="路径_1169" node-id="21" width="192.293" x="372.199" y="409.561"><feOffset color-interpolation-filters="linearRGB" dx="0" dy="0" in="SourceGraphic" result="result1"></feOffset><feGaussianBlur color-interpolation-filters="linearRGB" in="result1" result="blur-4" stdDeviation="6 6"></feGaussianBlur><feFlood color-interpolation-filters="linearRGB" flood-color="#012657" flood-opacity="0.161" result="result3"></feFlood><feComposite color-interpolation-filters="linearRGB" in="result3" in2="blur-4" operator="in" result="result4"></feComposite><feComposite color-interpolation-filters="linearRGB" in="SourceGraphic" in2="result4" operator="over" result="result5"></feComposite></filter><clipPath id="clip-搜索" node-id="29"><path d="M 0.00 0.00 L 1024.00 0.00 L 1024.00 1024.00 L 0.00 1024.00 Z" fill="#000000" fill-rule="nonzero" node-id="127" stroke="none" target-height="1024" target-width="1024" target-x="0" target-y="0"></path></clipPath><clipPath id="clip-path" node-id="27"><path d="M 191.10 677.20 L 188.60 676.90 L 182.90 674.90 L 174.40 669.90 L 166.20 663.70 L 160.20 658.40 L 156.60 654.30 L 156.00 653.30 L 155.70 651.80 L 156.20 647.20 L 157.20 643.80 L 159.30 638.90 L 162.40 633.00 L 169.60 621.00 L 172.70 615.20 L 178.20 602.60 L 183.10 589.50 L 186.80 577.60 L 188.90 568.30 L 189.70 560.40 L 190.90 538.30 L 191.60 517.00 L 184.20 516.60 L 174.80 515.50 L 167.10 513.50 L 160.50 510.40 L 156.10 506.80 L 154.40 504.60 L 153.20 502.00 L 152.50 499.10 L 152.20 495.50 L 152.50 491.00 L 153.40 485.40 L 155.00 478.60 L 158.40 467.30 L 162.40 456.30 L 164.40 451.60 L 171.60 438.50 L 181.90 422.80 L 186.40 416.80 L 189.30 413.80 L 195.70 412.00 L 205.40 410.10 L 208.90 409.80 L 210.40 412.00 L 212.00 415.30 L 213.80 420.20 L 215.70 427.10 L 219.00 444.50 L 220.20 453.20 L 221.60 466.00 L 223.40 487.50 L 230.80 485.20 L 235.20 499.10 L 227.20 503.50 L 228.70 528.40 L 230.10 558.90 L 230.30 581.40 L 229.50 590.80 L 227.40 598.60 L 223.90 610.10 L 219.30 623.70 L 210.60 646.80 L 206.80 655.50 L 202.70 664.10 L 197.50 673.00 L 194.20 676.40 L 193.10 676.90 L 191.10 677.20 Z M 190.30 449.00 L 186.00 455.10 L 182.10 461.50 L 179.30 466.80 L 177.00 472.50 L 175.80 476.60 L 175.40 480.00 L 175.60 482.60 L 176.40 485.80 L 177.40 488.30 L 179.80 491.60 L 182.90 493.60 L 185.60 494.30 L 192.30 494.30 L 190.30 449.00 Z" fill="#000000" fill-rule="nonzero" id="减去_26" node-id="28" stroke="none" target-height="267.40002" target-width="83" target-x="152.2" target-y="409.8"></path></clipPath></defs><g clip-path="url(#clip-搜索)" id="搜索" node-id="31"><path d="M 0.00 0.00 L 1024.00 0.00 L 1024.00 1024.00 L 0.00 1024.00 Z" fill="#ffffff" fill-rule="nonzero" node-id="135" stroke="none" target-height="1024" target-width="1024" target-x="0" target-y="0"></path><path d="M 214.50 498.50 L 496.20 274.30 L 777.50 498.50 L 777.50 663.50 L 214.50 663.50 Z" fill="#d8e6ff" fill-rule="nonzero" group-id="1" id="路径_1170" node-id="33" stroke="none" target-height="389.2" target-width="563" target-x="214.5" target-y="274.3"></path><path d="M 648.50 160.50 L 861.90 160.50 L 867.90 160.80 L 876.00 162.20 L 880.30 163.50 L 884.70 165.30 L 890.00 168.50 L 892.40 170.60 L 943.30 220.60 L 952.50 230.10 L 958.50 236.80 L 961.70 241.10 L 964.00 244.90 L 965.80 248.80 L 967.00 252.60 L 967.80 256.50 L 968.40 265.30 L 968.50 563.50 L 968.30 567.10 L 967.60 570.40 L 966.50 573.60 L 964.90 576.70 L 963.10 579.40 L 960.90 581.90 L 958.40 584.10 L 955.60 586.00 L 952.60 587.50 L 949.40 588.60 L 946.10 589.30 L 942.50 589.50 L 648.50 589.50 L 644.90 589.30 L 641.60 588.60 L 638.40 587.50 L 635.40 586.00 L 632.60 584.10 L 630.10 581.90 L 627.90 579.40 L 626.10 576.70 L 624.50 573.60 L 623.40 570.40 L 622.70 567.10 L 622.50 563.50 L 622.50 186.50 L 622.70 182.90 L 623.40 179.60 L 624.50 176.40 L 626.10 173.40 L 627.90 170.60 L 630.10 168.10 L 632.60 165.90 L 635.40 164.10 L 638.40 162.60 L 641.60 161.40 L 644.90 160.80 L 648.50 160.50 Z" fill="#d9e7ff" fill-rule="nonzero" group-id="2,8" id="路径_1167" node-id="35" stroke="none" target-height="429" target-width="346" target-x="622.5" target-y="160.5"></path><path d="M 683.50 256.50 L 823.50 256.50 L 823.50 396.50 L 683.50 396.50 Z" fill="#ffffff" fill-rule="nonzero" group-id="2,9" id="矩形_2415" node-id="36" stroke="none" target-height="140" target-width="140" target-x="683.5" target-y="256.5"></path><path d="M 930.50 357.00 L 929.70 366.90 L 928.70 371.60 L 925.70 380.60 L 921.40 388.90 L 918.80 392.70 L 914.90 397.60 L 910.50 401.90 L 905.70 405.80 L 897.80 410.80 L 893.60 412.70 L 884.60 415.80 L 879.90 416.70 L 870.00 417.50 L 860.10 416.70 L 855.40 415.80 L 846.40 412.70 L 838.10 408.50 L 834.30 405.80 L 829.50 401.90 L 825.10 397.60 L 821.20 392.70 L 816.30 384.80 L 814.30 380.60 L 811.30 371.60 L 810.30 366.90 L 809.50 357.00 L 810.30 347.10 L 811.30 342.40 L 814.30 333.40 L 816.30 329.20 L 821.20 321.30 L 825.10 316.50 L 829.50 312.10 L 834.30 308.20 L 838.10 305.60 L 846.40 301.30 L 855.40 298.30 L 860.10 297.30 L 870.00 296.50 L 879.90 297.30 L 884.60 298.30 L 893.60 301.30 L 901.90 305.60 L 905.70 308.20 L 910.50 312.10 L 914.90 316.50 L 918.80 321.30 L 923.70 329.20 L 925.70 333.40 L 928.70 342.40 L 929.70 347.10 L 930.50 357.00 Z" fill="#e4edfd" fill-rule="nonzero" filter="url(#椭圆_717)" group-id="2,10,22" id="椭圆_717-3" node-id="38" stroke="none" target-height="121" target-width="121" target-x="809.5" target-y="296.5"></path><path d="M 769.40 360.60 L 692.20 500.20 L 848.50 500.20 Z" fill="#e4edfd" fill-rule="nonzero" filter="url(#路径_1168)" group-id="2,11,23" id="路径_1168-2" node-id="40" stroke="none" target-height="139.6" target-width="156.29999" target-x="692.2" target-y="360.6"></path><path d="M 326.20 199.60 L 572.60 199.60 L 579.50 200.00 L 588.80 201.60 L 593.90 203.00 L 598.90 205.10 L 605.10 208.80 L 607.80 211.20 L 666.60 269.00 L 681.50 284.60 L 687.80 292.70 L 690.50 297.10 L 692.60 301.50 L 694.00 305.90 L 694.90 310.50 L 695.60 320.60 L 695.70 665.00 L 695.40 669.10 L 694.60 673.00 L 693.30 676.70 L 691.60 680.20 L 689.50 683.30 L 686.90 686.20 L 684.00 688.80 L 680.90 690.90 L 677.40 692.70 L 673.70 693.90 L 669.80 694.70 L 665.70 695.00 L 326.20 695.00 L 322.00 694.70 L 318.20 693.90 L 314.50 692.70 L 311.00 690.90 L 307.80 688.80 L 304.90 686.20 L 302.40 683.30 L 300.30 680.20 L 298.50 676.70 L 297.20 673.00 L 296.40 669.10 L 296.10 665.00 L 296.10 229.60 L 296.40 225.60 L 297.20 221.80 L 298.40 218.10 L 300.20 214.60 L 302.30 211.40 L 304.90 208.40 L 307.90 205.80 L 311.20 203.60 L 314.70 201.90 L 318.40 200.60 L 322.20 199.90 L 326.20 199.60 Z" fill="#307eff" fill-rule="nonzero" group-id="3,12" id="路径_1167-2" node-id="42" stroke="none" target-height="495.4" target-width="399.6" target-x="296.1" target-y="199.6"></path><path d="M 366.50 310.50 L 528.50 310.50 L 528.50 472.50 L 366.50 472.50 Z" fill="#ffffff" fill-rule="nonzero" group-id="3,13" id="矩形_2415-2" node-id="43" stroke="none" target-height="162" target-width="162" target-x="366.5" target-y="310.5"></path><path d="M 652.50 426.50 L 652.30 432.30 L 651.60 437.90 L 650.50 443.40 L 648.90 448.60 L 647.00 453.80 L 644.70 458.70 L 642.00 463.40 L 639.00 467.90 L 635.60 472.10 L 632.00 476.00 L 628.10 479.60 L 623.80 483.00 L 619.40 486.00 L 614.70 488.70 L 609.80 491.00 L 604.60 492.90 L 599.40 494.50 L 593.90 495.60 L 588.30 496.30 L 582.50 496.50 L 576.70 496.30 L 571.10 495.60 L 565.60 494.50 L 560.40 492.90 L 555.20 491.00 L 550.30 488.70 L 545.60 486.00 L 541.20 483.00 L 536.90 479.60 L 533.00 476.00 L 529.40 472.10 L 526.00 467.90 L 523.00 463.40 L 520.30 458.70 L 518.00 453.80 L 516.10 448.60 L 514.50 443.40 L 513.40 437.90 L 512.70 432.30 L 512.50 426.50 L 512.70 420.70 L 513.40 415.10 L 514.50 409.70 L 516.10 404.40 L 518.00 399.20 L 520.30 394.30 L 523.00 389.60 L 526.00 385.20 L 529.40 380.90 L 533.00 377.00 L 536.90 373.40 L 541.20 370.00 L 545.60 367.00 L 550.30 364.30 L 555.20 362.00 L 560.40 360.10 L 565.60 358.50 L 571.10 357.40 L 576.70 356.80 L 582.50 356.50 L 588.30 356.80 L 593.90 357.40 L 599.40 358.50 L 604.60 360.10 L 609.80 362.00 L 614.70 364.30 L 619.40 367.00 L 623.80 370.00 L 628.10 373.40 L 632.00 377.00 L 635.60 380.90 L 639.00 385.20 L 642.00 389.60 L 644.70 394.30 L 647.00 399.20 L 648.90 404.40 L 650.50 409.70 L 651.60 415.10 L 652.30 420.70 L 652.50 426.50 Z" fill="#b1cdff" fill-rule="nonzero" filter="url(#椭圆_717-2)" group-id="3,14,24" id="椭圆_717-4" node-id="45" stroke="none" target-height="140" target-width="140" target-x="512.5" target-y="356.5"></path><path d="M 467.40 427.60 L 390.20 567.20 L 546.50 567.20 Z" fill="#b1cdff" fill-rule="nonzero" filter="url(#路径_1169)" group-id="3,15,25" id="路径_1169-2" node-id="47" stroke="none" target-height="139.6" target-width="156.29999" target-x="390.2" target-y="427.6"></path><path d="M 724.50 780.50 L 267.50 780.50 L 262.20 780.20 L 257.10 779.50 L 252.10 778.20 L 247.20 776.50 L 242.50 774.30 L 238.10 771.60 L 233.90 768.60 L 230.00 765.00 L 226.50 761.10 L 223.40 756.90 L 220.70 752.50 L 218.50 747.80 L 216.80 742.90 L 215.50 737.90 L 214.80 732.80 L 214.50 727.50 L 214.50 562.50 L 362.50 562.50 L 366.40 562.80 L 370.10 563.40 L 373.60 564.50 L 376.90 566.00 L 380.10 567.80 L 383.00 570.00 L 385.70 572.40 L 388.10 575.20 L 390.10 578.30 L 391.80 581.60 L 393.10 585.10 L 394.00 588.80 L 393.50 595.50 L 393.80 599.90 L 394.70 604.00 L 396.00 608.00 L 397.90 611.70 L 400.20 615.10 L 402.90 618.10 L 406.00 620.80 L 409.30 623.10 L 413.10 625.00 L 417.00 626.40 L 421.10 627.20 L 425.50 627.50 L 566.50 627.50 L 570.90 627.20 L 575.00 626.40 L 578.90 625.00 L 582.70 623.10 L 586.00 620.80 L 589.10 618.10 L 591.80 615.10 L 594.10 611.70 L 596.00 608.00 L 597.30 604.00 L 598.20 599.90 L 598.50 594.50 L 598.00 588.80 L 598.90 585.10 L 600.20 581.60 L 601.90 578.30 L 603.90 575.20 L 606.30 572.40 L 609.00 570.00 L 611.90 567.80 L 615.10 565.90 L 618.40 564.50 L 621.90 563.40 L 625.60 562.80 L 629.50 562.50 L 777.50 562.50 L 777.50 727.50 L 777.20 732.80 L 776.50 737.90 L 775.20 742.90 L 773.50 747.80 L 771.30 752.50 L 768.60 756.90 L 765.50 761.10 L 762.00 765.00 L 758.10 768.60 L 753.90 771.60 L 749.50 774.30 L 744.80 776.50 L 739.90 778.20 L 734.90 779.50 L 729.80 780.20 L 724.50 780.50 Z" fill="#f2f6fc" fill-rule="nonzero" group-id="4" id="减去_2" node-id="48" stroke="none" target-height="218" target-width="563" target-x="214.5" target-y="562.5"></path><path d="M 879.50 573.50 L 879.20 582.20 L 878.30 590.70 L 876.90 599.00 L 875.00 607.00 L 872.50 614.90 L 869.60 622.60 L 866.20 630.00 L 862.30 637.10 L 858.00 644.00 L 853.20 650.50 L 848.10 656.70 L 842.60 662.60 L 836.70 668.10 L 830.50 673.30 L 824.00 678.00 L 817.10 682.30 L 810.00 686.20 L 802.60 689.60 L 794.90 692.50 L 787.00 695.00 L 778.90 697.00 L 770.70 698.40 L 762.20 699.20 L 753.50 699.50 L 744.80 699.20 L 736.30 698.40 L 728.10 697.00 L 720.00 695.00 L 712.10 692.50 L 704.40 689.60 L 697.00 686.20 L 689.90 682.30 L 683.00 678.00 L 676.50 673.30 L 670.30 668.10 L 664.40 662.60 L 658.90 656.70 L 653.80 650.50 L 649.00 644.00 L 644.70 637.10 L 640.80 630.00 L 637.40 622.60 L 634.50 614.90 L 632.00 607.00 L 630.10 599.00 L 628.70 590.70 L 627.80 582.20 L 627.50 573.50 L 627.80 564.80 L 628.70 556.30 L 630.10 548.10 L 632.00 540.00 L 634.50 532.10 L 637.40 524.40 L 640.80 517.00 L 644.70 509.90 L 649.00 503.00 L 653.80 496.50 L 658.90 490.30 L 664.40 484.40 L 670.30 478.90 L 676.50 473.80 L 683.00 469.10 L 689.90 464.70 L 697.00 460.80 L 704.40 457.40 L 712.10 454.50 L 720.00 452.00 L 728.10 450.10 L 736.30 448.70 L 744.80 447.80 L 753.50 447.50 L 762.20 447.80 L 770.70 448.70 L 778.90 450.10 L 787.00 452.00 L 794.90 454.50 L 802.60 457.40 L 810.00 460.80 L 817.10 464.70 L 824.00 469.10 L 830.50 473.80 L 836.70 478.90 L 842.60 484.40 L 848.10 490.30 L 853.20 496.50 L 858.00 503.00 L 862.30 509.90 L 866.20 517.00 L 869.60 524.40 L 872.50 532.10 L 875.00 540.00 L 876.90 548.10 L 878.30 556.30 L 879.20 564.80 L 879.50 573.50 Z" fill="#eff5fd" fill-rule="nonzero" group-id="5,16" id="椭圆_720" node-id="50" stroke="none" target-height="252" target-width="252" target-x="627.5" target-y="447.5"></path><path d="M 753.50 699.50 L 745.00 699.20 L 736.50 698.40 L 728.10 697.00 L 720.10 695.00 L 712.30 692.60 L 704.60 689.70 L 697.20 686.30 L 690.00 682.40 L 683.10 678.00 L 677.10 673.70 L 671.40 669.10 L 666.10 664.20 L 661.00 659.10 L 656.20 653.60 L 651.70 647.80 L 647.60 641.90 L 643.90 635.70 L 640.50 629.20 L 637.40 622.60 L 634.40 614.80 L 632.00 607.00 L 630.10 598.90 L 628.60 590.50 L 627.80 582.00 L 627.50 573.50 L 627.80 565.00 L 628.60 556.60 L 630.10 548.10 L 632.00 540.10 L 634.40 532.30 L 637.30 524.70 L 640.70 517.20 L 644.60 510.00 L 649.00 503.10 L 653.30 497.10 L 657.90 491.40 L 662.80 486.10 L 667.90 481.00 L 673.40 476.20 L 679.20 471.80 L 685.10 467.70 L 691.30 463.90 L 697.80 460.50 L 704.50 457.40 L 712.20 454.40 L 720.10 452.00 L 728.10 450.10 L 736.50 448.70 L 745.00 447.80 L 753.50 447.50 L 762.00 447.80 L 770.50 448.70 L 778.90 450.10 L 786.90 452.00 L 794.70 454.40 L 802.40 457.30 L 809.80 460.80 L 817.00 464.70 L 823.90 469.00 L 829.90 473.30 L 835.60 477.90 L 840.90 482.80 L 846.00 488.00 L 850.80 493.40 L 855.30 499.20 L 859.40 505.10 L 863.10 511.30 L 866.50 517.80 L 869.60 524.50 L 872.60 532.20 L 875.00 540.10 L 876.90 548.10 L 878.40 556.60 L 879.20 565.00 L 879.50 573.50 L 879.20 582.00 L 878.40 590.50 L 876.90 598.90 L 875.00 606.90 L 872.60 614.70 L 869.70 622.40 L 866.30 629.80 L 862.40 637.00 L 858.00 644.00 L 853.70 649.90 L 849.10 655.60 L 844.20 661.00 L 839.10 666.00 L 833.60 670.80 L 827.80 675.30 L 821.90 679.40 L 815.70 683.10 L 809.20 686.50 L 802.50 689.60 L 794.80 692.60 L 786.90 695.00 L 778.90 697.00 L 770.50 698.40 L 762.00 699.20 L 753.50 699.50 Z M 753.50 463.50 L 745.90 463.80 L 738.50 464.50 L 731.30 465.80 L 724.30 467.40 L 717.30 469.60 L 710.60 472.20 L 704.20 475.10 L 698.00 478.50 L 692.00 482.30 L 686.30 486.40 L 680.90 490.90 L 675.70 495.70 L 670.90 500.90 L 666.40 506.30 L 662.30 512.00 L 658.50 518.00 L 655.10 524.20 L 652.20 530.70 L 649.60 537.30 L 647.40 544.30 L 645.70 551.30 L 644.50 558.50 L 643.80 565.90 L 643.50 573.50 L 643.80 581.10 L 644.50 588.50 L 645.70 595.70 L 647.40 602.80 L 649.60 609.70 L 652.20 616.40 L 655.10 622.80 L 658.50 629.00 L 662.30 635.00 L 666.40 640.70 L 670.90 646.20 L 675.70 651.30 L 680.90 656.10 L 686.30 660.60 L 692.00 664.70 L 698.00 668.50 L 704.20 671.90 L 710.60 674.90 L 717.30 677.40 L 724.30 679.60 L 731.30 681.30 L 738.50 682.50 L 745.90 683.20 L 753.50 683.50 L 761.10 683.20 L 768.50 682.50 L 775.70 681.30 L 782.70 679.60 L 789.70 677.40 L 796.40 674.90 L 802.80 671.90 L 809.00 668.50 L 815.00 664.70 L 820.70 660.60 L 826.10 656.10 L 831.30 651.30 L 836.10 646.20 L 840.60 640.70 L 844.70 635.00 L 848.50 629.00 L 851.90 622.80 L 854.80 616.40 L 857.40 609.70 L 859.60 602.80 L 861.30 595.70 L 862.50 588.50 L 863.20 581.10 L 863.50 573.50 L 863.20 565.90 L 862.50 558.50 L 861.20 551.30 L 859.50 544.30 L 857.40 537.40 L 854.80 530.70 L 851.80 524.20 L 848.40 518.00 L 844.70 512.00 L 840.50 506.30 L 836.10 500.90 L 831.20 495.80 L 826.10 490.90 L 820.70 486.50 L 815.00 482.40 L 809.00 478.60 L 802.80 475.20 L 796.30 472.20 L 789.70 469.60 L 782.70 467.50 L 775.70 465.80 L 768.50 464.50 L 761.10 463.80 L 753.50 463.50 Z" fill="#fdd635" fill-rule="nonzero" group-id="5,17" id="减去_3" node-id="51" stroke="none" target-height="252" target-width="252" target-x="627.5" target-y="447.5"></path><path d="M 859.00 612.40 L 936.60 651.90 L 939.30 653.70 L 941.70 655.80 L 943.50 658.20 L 945.00 661.00 L 945.90 663.90 L 946.40 666.90 L 946.30 670.00 L 945.60 673.10 L 944.40 676.10 L 942.70 678.90 L 940.60 681.20 L 938.10 683.10 L 935.40 684.50 L 932.50 685.50 L 929.40 685.90 L 926.30 685.90 L 923.30 685.20 L 920.20 684.00 L 842.70 644.50 L 859.00 612.40 Z" fill="#fdd635" fill-rule="nonzero" group-id="5,18" id="矩形_2420" node-id="52" stroke="none" target-height="73.5" target-width="103.70001" target-x="842.7" target-y="612.4"></path><path d="M 340.50 822.00 L 340.20 824.60 L 339.40 827.20 L 338.00 829.80 L 336.00 832.40 L 333.20 835.10 L 329.60 837.90 L 325.10 840.80 L 319.60 843.70 L 313.00 846.50 L 299.30 851.20 L 282.20 855.50 L 270.30 857.80 L 257.30 859.80 L 243.00 861.40 L 228.80 862.50 L 213.80 863.30 L 198.00 863.50 L 182.20 863.30 L 167.20 862.50 L 153.00 861.40 L 138.70 859.80 L 125.70 857.80 L 113.80 855.50 L 96.70 851.20 L 83.00 846.50 L 76.40 843.70 L 70.90 840.80 L 66.40 837.90 L 62.80 835.10 L 60.00 832.40 L 58.00 829.80 L 56.60 827.20 L 55.80 824.60 L 55.50 822.00 L 55.80 819.40 L 56.60 816.90 L 58.00 814.30 L 60.00 811.60 L 62.80 808.90 L 66.40 806.10 L 70.90 803.20 L 76.40 800.40 L 83.00 797.50 L 96.70 792.80 L 113.80 788.50 L 125.70 786.20 L 138.70 784.30 L 153.00 782.60 L 167.20 781.50 L 182.20 780.80 L 198.00 780.50 L 213.80 780.80 L 228.80 781.50 L 243.00 782.60 L 257.30 784.30 L 270.30 786.20 L 282.20 788.50 L 299.30 792.80 L 313.00 797.50 L 319.60 800.40 L 325.10 803.20 L 329.60 806.10 L 333.20 808.90 L 336.00 811.60 L 338.00 814.30 L 339.40 816.90 L 340.20 819.40 L 340.50 822.00 Z" fill="#e1ebfa" fill-rule="nonzero" group-id="6" id="椭圆_798" node-id="53" stroke="none" target-height="83" target-width="285" target-x="55.5" target-y="780.5"></path><path d="M 248.60 764.70 L 242.80 775.80 L 238.70 781.60 L 237.90 784.60 L 238.10 786.10 L 239.00 787.90 L 240.50 789.40 L 243.20 791.20 L 250.10 794.70 L 270.60 803.90 L 285.70 810.20 L 288.70 810.90 L 291.90 811.20 L 296.10 810.70 L 298.00 810.10 L 299.60 809.10 L 300.80 807.70 L 301.70 805.90 L 301.40 803.80 L 298.80 800.20 L 296.20 797.70 L 278.80 783.80 L 277.00 782.10 L 276.40 781.10 L 275.70 777.30 L 274.50 766.20 Z" fill="#fda804" fill-rule="nonzero" group-id="7,19,26" id="路径_1310" node-id="56" stroke="none" target-height="46.5" target-width="63.80002" target-x="237.9" target-y="764.7"></path><path d="M 264.10 551.80 L 277.80 620.20 L 284.50 657.10 L 286.50 670.60 L 287.80 685.10 L 288.80 702.30 L 290.00 737.80 L 290.40 766.30 L 280.30 768.60 L 275.50 769.40 L 264.40 770.20 L 254.80 769.50 L 247.70 767.50 L 244.40 766.00 L 241.50 764.10 L 238.80 761.60 L 239.50 746.90 L 240.00 714.00 L 239.30 661.60 L 237.00 598.00 L 234.50 551.80 Z" fill="#18225f" fill-rule="nonzero" group-id="7,19,27" id="路径_1309" node-id="57" stroke="none" target-height="218.40002" target-width="55.899994" target-x="234.5" target-y="551.8"></path><path d="M 127.60 735.60 L 112.90 738.00 L 111.80 738.50 L 109.50 740.30 L 108.50 741.70 L 107.80 743.60 L 107.50 746.80 L 108.60 751.30 L 114.70 765.90 L 130.00 798.90 L 132.70 805.40 L 135.50 808.50 L 139.20 810.80 L 142.20 811.30 L 144.10 810.40 L 145.10 808.10 L 145.30 805.90 L 145.00 799.00 L 141.00 762.30 L 141.10 761.50 L 142.60 759.30 L 148.90 751.60 Z" fill="#fda804" fill-rule="nonzero" group-id="7,19,28" id="路径_1312" node-id="58" stroke="none" target-height="75.70001" target-width="41.399994" target-x="107.5" target-y="735.6"></path><path d="M 241.70 551.80 L 244.00 567.50 L 245.10 585.20 L 245.10 595.60 L 244.60 607.70 L 243.80 615.90 L 241.20 633.70 L 239.30 642.90 L 236.90 652.30 L 233.80 662.00 L 230.30 671.60 L 226.40 680.80 L 222.00 689.60 L 217.30 698.20 L 207.50 713.80 L 197.10 727.80 L 184.50 742.30 L 177.80 749.00 L 171.30 754.80 L 166.50 758.50 L 163.30 760.60 L 160.20 761.60 L 154.50 759.90 L 150.60 758.10 L 141.60 752.70 L 136.90 749.10 L 131.30 743.50 L 128.80 740.40 L 126.60 737.10 L 124.90 733.70 L 123.60 730.00 L 126.40 728.30 L 133.80 722.80 L 144.10 714.50 L 155.70 704.30 L 161.40 698.70 L 166.80 693.10 L 171.80 687.30 L 175.90 681.80 L 180.00 674.50 L 181.20 671.30 L 184.30 659.70 L 188.40 643.30 L 209.30 553.60 Z" fill="#1c2d7d" fill-rule="nonzero" group-id="7,19,29" id="路径_1311" node-id="59" stroke="none" target-height="209.79999" target-width="121.50001" target-x="123.6" target-y="551.8"></path><path d="M 211.00 363.60 L 199.20 366.60 L 205.30 383.80 L 211.00 389.60 L 211.00 409.60 L 209.60 411.20 L 219.20 432.00 L 230.20 430.10 L 232.60 407.40 L 230.20 404.90 L 230.20 387.40 Z" fill="#e6998c" fill-rule="nonzero" group-id="7,20,30" id="路径_1294" node-id="61" stroke="none" target-height="68.399994" target-width="33.40001" target-x="199.2" target-y="363.6"></path><path d="M 245.70 344.20 L 247.70 367.60 L 247.90 374.00 L 247.70 377.50 L 246.90 378.50 L 243.00 380.40 L 234.30 382.50 L 225.00 377.50 L 213.50 362.20 L 209.10 348.00 L 235.40 334.00 Z" fill="#feb2a5" fill-rule="nonzero" group-id="7,20,31" id="路径_1295" node-id="62" stroke="none" target-height="48.5" target-width="38.799988" target-x="209.1" target-y="334"></path><path d="M 209.50 378.80 L 207.10 375.60 L 206.20 372.00 L 206.30 370.30 L 206.80 368.70 L 207.70 367.30 L 209.10 366.30 L 211.10 365.60 L 211.70 369.70 L 212.80 373.60 L 214.30 377.40 L 216.30 381.00 L 218.60 384.30 L 221.20 387.40 L 224.20 390.10 L 227.60 392.60 L 230.60 394.30 L 233.30 395.40 L 235.60 395.90 L 237.90 395.90 L 240.00 395.50 L 241.80 394.70 L 243.40 393.60 L 246.00 390.30 L 247.80 385.70 L 248.40 380.90 L 248.10 375.80 L 247.20 375.60 L 242.60 376.90 L 237.80 377.20 L 234.90 376.80 L 231.50 375.60 L 228.50 374.10 L 226.00 372.40 L 224.10 370.60 L 222.50 368.40 L 221.20 366.00 L 220.20 363.30 L 219.20 358.80 L 218.70 353.30 L 225.30 350.70 L 228.40 349.00 L 230.90 346.90 L 232.30 345.30 L 233.30 343.50 L 233.90 341.50 L 244.90 344.90 L 245.60 345.50 L 246.40 353.30 L 246.50 353.70 L 247.00 353.70 L 247.90 353.40 L 251.20 350.30 L 252.80 348.00 L 254.30 345.10 L 255.30 340.90 L 254.90 336.50 L 253.70 334.00 L 252.50 332.80 L 249.70 331.40 L 247.60 329.90 L 246.90 328.90 L 244.40 322.10 L 242.30 319.80 L 240.70 318.90 L 236.60 318.10 L 229.70 317.80 L 226.00 317.00 L 215.80 314.10 L 213.00 313.70 L 211.20 313.80 L 209.70 314.30 L 208.40 315.20 L 205.70 318.50 L 203.70 323.00 L 201.50 325.90 L 197.10 328.90 L 190.90 331.90 L 189.10 333.20 L 187.60 335.10 L 186.30 338.50 L 185.60 344.00 L 186.40 347.80 L 188.50 351.60 L 189.20 354.50 L 189.00 356.30 L 187.10 362.70 L 186.60 365.70 L 186.50 368.10 L 186.90 370.00 L 187.80 371.80 L 189.20 373.30 L 191.00 374.40 L 194.80 375.80 L 196.60 377.40 L 197.50 379.00 L 199.80 386.60 L 200.50 388.20 L 201.70 389.50 L 203.30 390.30 L 206.30 391.00 L 208.30 391.00 L 210.10 390.70 L 212.00 389.70 L 210.50 384.30 L 209.50 378.80 Z" fill="#155dc1" fill-rule="nonzero" group-id="7,20,32" id="路径_1296" node-id="63" stroke="none" target-height="82.19998" target-width="69.7" target-x="185.6" target-y="313.7"></path><path d="M 228.50 555.40 L 236.60 556.30 L 244.20 556.50 L 252.00 555.60 L 256.50 554.20 L 260.30 551.60 L 262.40 548.80 L 263.00 546.60 L 263.00 544.80 L 262.60 543.00 L 261.40 540.60 L 239.50 540.60 L 217.30 546.10 Z" fill="#0359f8" fill-rule="nonzero" group-id="7,21,33" id="路径_1298" node-id="65" stroke="none" target-height="15.900024" target-width="45.699997" target-x="217.3" target-y="540.6"></path><path d="M 209.40 410.40 L 224.70 427.90 L 232.10 406.80 L 237.00 410.40 L 254.00 482.10 L 263.00 539.50 L 258.40 546.90 L 226.30 548.00 L 206.40 424.60 Z" fill="#ffffff" fill-rule="nonzero" group-id="7,21,34" id="路径_1297" node-id="66" stroke="none" target-height="141.20001" target-width="56.600006" target-x="206.4" target-y="406.8"></path><path d="M 356.80 500.80 L 365.60 499.80 L 373.30 499.50 L 380.10 500.10 L 393.70 502.90 L 397.70 503.20 L 401.30 502.90 L 403.60 502.40 L 405.50 501.50 L 407.10 500.30 L 408.80 497.80 L 409.20 496.00 L 409.40 493.80 L 409.10 490.90 L 408.50 488.40 L 407.50 486.40 L 406.10 484.50 L 402.70 481.50 L 399.60 480.00 L 396.30 478.90 L 392.80 478.20 L 389.50 477.80 L 383.50 477.90 L 380.10 478.40 L 371.40 480.40 L 358.90 484.50 L 353.70 487.00 L 352.90 487.80 L 352.50 488.90 L 352.50 490.30 L 352.90 492.50 L 353.70 494.90 L 356.80 500.80 Z" fill="#f9aaa0" fill-rule="nonzero" group-id="7,21,35" id="路径_1300" node-id="67" stroke="none" target-height="25.400024" target-width="56.899994" target-x="352.5" target-y="477.8"></path><path d="M 232.10 406.80 L 241.70 457.80 L 248.90 498.40 L 251.70 515.70 L 259.20 572.60 L 260.60 586.80 L 261.80 602.80 L 262.60 625.10 L 262.00 649.60 L 261.10 662.40 L 259.70 675.80 L 263.70 676.70 L 266.10 676.70 L 269.60 676.10 L 277.20 673.50 L 287.50 668.00 L 293.90 663.70 L 289.10 630.80 L 287.80 620.90 L 286.80 607.70 L 285.40 597.80 L 277.60 553.20 L 274.20 525.40 L 270.10 485.90 L 278.10 492.90 L 282.40 496.00 L 291.50 501.20 L 301.40 505.00 L 306.50 506.40 L 315.80 507.80 L 327.60 507.90 L 334.30 507.40 L 346.20 505.60 L 357.70 502.90 L 358.80 499.00 L 359.30 493.70 L 358.80 490.90 L 358.10 489.10 L 357.00 487.40 L 355.50 485.90 L 337.50 487.90 L 331.60 488.10 L 325.30 487.80 L 321.10 487.20 L 316.90 486.10 L 312.80 484.50 L 307.30 481.20 L 299.60 474.70 L 294.90 469.80 L 290.30 464.50 L 281.60 453.20 L 277.70 447.70 L 271.40 437.30 L 269.00 432.70 L 266.00 425.00 L 264.10 421.30 L 262.00 418.00 L 257.20 412.40 L 252.30 408.60 L 248.00 406.80 L 242.80 406.20 L 237.70 406.30 L 232.10 406.80 Z" fill="#4cb7ff" fill-rule="nonzero" group-id="7,21,36" id="路径_1299" node-id="68" stroke="none" target-height="270.5" target-width="127.19998" target-x="232.1" target-y="406.2"></path><path d="M 248.40 435.50 L 296.80 428.80 L 279.60 500.50 L 231.60 508.80 Z" fill="#0540be" fill-rule="nonzero" group-id="7,21,37" id="路径_1301" node-id="69" stroke="#707070" stroke-linecap="butt" stroke-width="1" target-height="80" target-width="65.19998" target-x="231.6" target-y="428.8"></path><path d="M 231.60 485.80 L 238.20 477.30 L 241.70 473.80 L 244.90 471.90 L 249.60 471.10 L 251.80 471.10 L 253.60 471.70 L 254.60 472.40 L 255.30 473.50 L 255.80 475.10 L 256.30 480.60 L 256.00 483.30 L 255.10 485.90 L 252.80 489.00 L 244.60 494.30 L 241.30 496.10 L 238.10 497.30 L 235.90 497.70 L 233.70 497.80 L 231.60 497.40 L 230.20 496.70 L 229.40 495.80 L 228.90 494.80 L 228.80 492.90 L 229.20 490.90 L 231.60 485.80 Z" fill="#f9aaa0" fill-rule="nonzero" group-id="7,21,38" id="路径_1302" node-id="70" stroke="none" target-height="26.699982" target-width="27.499985" target-x="228.8" target-y="471.1"></path><path d="M 191.10 677.20 L 188.60 676.90 L 182.90 674.90 L 174.40 669.90 L 166.20 663.70 L 160.20 658.40 L 156.60 654.30 L 156.00 653.30 L 155.70 651.80 L 156.20 647.20 L 157.20 643.80 L 159.30 638.90 L 162.40 633.00 L 169.60 621.00 L 172.70 615.20 L 178.20 602.60 L 183.10 589.50 L 186.80 577.60 L 188.90 568.30 L 189.70 560.40 L 190.90 538.30 L 191.60 517.00 L 184.20 516.60 L 174.80 515.50 L 167.10 513.50 L 160.50 510.40 L 156.10 506.80 L 154.40 504.60 L 153.20 502.00 L 152.50 499.10 L 152.20 495.50 L 152.50 491.00 L 153.40 485.40 L 155.00 478.60 L 158.40 467.30 L 162.40 456.30 L 164.40 451.60 L 171.60 438.50 L 181.90 422.80 L 186.40 416.80 L 189.30 413.80 L 195.70 412.00 L 205.40 410.10 L 208.90 409.80 L 210.40 412.00 L 212.00 415.30 L 213.80 420.20 L 215.70 427.10 L 219.00 444.50 L 220.20 453.20 L 221.60 466.00 L 223.40 487.50 L 230.80 485.20 L 235.20 499.10 L 227.20 503.50 L 228.70 528.40 L 230.10 558.90 L 230.30 581.40 L 229.50 590.80 L 227.40 598.60 L 223.90 610.10 L 219.30 623.70 L 210.60 646.80 L 206.80 655.50 L 202.70 664.10 L 197.50 673.00 L 194.20 676.40 L 193.10 676.90 L 191.10 677.20 Z M 190.30 449.00 L 186.00 455.10 L 182.10 461.50 L 179.30 466.80 L 177.00 472.50 L 175.80 476.60 L 175.40 480.00 L 175.60 482.60 L 176.40 485.80 L 177.40 488.30 L 179.80 491.60 L 182.90 493.60 L 185.60 494.30 L 192.30 494.30 L 190.30 449.00 Z" fill="#4cb7ff" fill-rule="nonzero" group-id="7,21,39" id="减去_25" node-id="71" stroke="none" target-height="267.40002" target-width="83" target-x="152.2" target-y="409.8"></path><g clip-path="url(#clip-path)" group-id="7,21,40" id="蒙版组_5" node-id="72"><path d="M 193.20 431.30 L 189.70 453.50 L 190.60 494.70 L 199.70 492.70 Z" fill="#1792f8" fill-rule="nonzero" group-id="7,21,40,41" id="路径_1305" node-id="73" stroke="none" target-height="63.400024" target-width="10" target-x="189.7" target-y="431.3"></path><path d="M 227.40 502.80 L 215.00 509.50 L 205.70 513.50 L 195.90 516.50 L 185.80 518.10 L 185.00 518.50 L 184.90 519.10 L 186.90 519.90 L 190.80 520.70 L 201.00 518.00 L 215.80 513.00 L 225.50 508.50 L 229.30 506.00 L 228.60 504.30 L 227.40 502.80 Z" fill="#1792f8" fill-rule="nonzero" group-id="7,21,40,42" id="路径_1306" node-id="74" stroke="none" target-height="17.900024" target-width="44.40001" target-x="184.9" target-y="502.8"></path></g></g></svg>